<svg xmlns="http://www.w3.org/2000/svg" style="display:none" aria-hidden="true">
  <symbol id="icon-lang" viewBox="0 0 24 24">
    <circle cx="12" cy="12" r="9" fill="none" stroke="currentColor" stroke-width="1.8"/>
    <path
      fill="none"
      stroke="currentColor"
      stroke-width="1.8"
      d="M3 12h18M12 3c3 4 3 14 0 18M12 3c-3 4-3 14 0 18"
    />
  </symbol>
  <symbol id="icon-help" viewBox="0 0 24 24">
    <circle cx="12" cy="12" r="9" fill="none" stroke="currentColor" stroke-width="1.8"/>
    <path
      fill="currentColor"
      d="M10.2 8.4c.2-1.6 1.5-2.8 3.3-2.8 1.9 0 3.2 1.1 3.2 2.7 0 1.2-.6 1.9-2.1 2.8-1.2.7-1.6 1.2-1.6 2.1v.4h-2.4v-.5c0-1.3.5-2 1.9-2.9 1.3-.8 1.8-1.4 1.8-2.5 0-1-.8-1.7-2-1.7-1.1 0-1.9.6-2.1 1.7H10.2zm2.5 8.4c0-.9.7-1.6 1.6-1.6s1.6.7 1.6 1.6-.7 1.6-1.6 1.6-1.6-.7-1.6-1.6z"
    />
  </symbol>
  <symbol id="icon-update" viewBox="0 0 24 24">
    <path
      fill="none"
      stroke="currentColor"
      stroke-width="1.8"
      stroke-linecap="round"
      stroke-linejoin="round"
      d="M12 3v3m0 12v3M5.6 5.6l2.1 2.1m8.6 8.6 2.1 2.1M3 12h3m12 0h3M5.6 18.4l2.1-2.1m8.6-8.6 2.1-2.1"
    />
    <path fill="currentColor" d="M12 8.5l3.8 3.8H13.5V16h-3v-3.7H8.2L12 8.5z"/>
  </symbol>
  <symbol id="icon-download" viewBox="0 0 24 24">
    <path
      fill="none"
      stroke="currentColor"
      stroke-width="1.8"
      stroke-linecap="round"
      stroke-linejoin="round"
      d="M12 4v10m0 0 4-4m-4 4-4-4M5 18h14"
    />
  </symbol>
  <symbol id="icon-play" viewBox="0 0 24 24">
    <circle cx="12" cy="12" r="9" fill="none" stroke="currentColor" stroke-width="1.8"/>
    <path fill="currentColor" d="M10.5 8.8v6.4l5.8-3.2-5.8-3.2z"/>
  </symbol>
  <symbol id="icon-close" viewBox="0 0 24 24">
    <path
      fill="none"
      stroke="currentColor"
      stroke-width="1.8"
      stroke-linecap="round"
      d="M7 7l10 10M17 7 7 17"
    />
  </symbol>
</svg>
